<?xml version="1.0" encoding="UTF-8"?>
<svg id="Layer_2" data-name="Layer 2" xmlns="http://www.w3.org/2000/svg" viewBox="0 0 76.15 76.89">
  <defs>
    <style>
      .cls-1 {
        fill: #2dd4bf;
      }

      .cls-2 {
        fill: #b1fce8;
      }

      .cls-3 {
        fill: #0f766e;
      }

      .cls-4 {
        fill: #134e4a;
      }
    </style>
  </defs>
  <g id="Layer_1-2" data-name="Layer 1">
    <path class="cls-2" d="M65.58,76.89H10.57c-5.83,0-10.57-4.74-10.57-10.57V11.31C0,5.48,4.74.74,10.57.74h26.87c1.42,0,2.57,1.15,2.57,2.57s-1.15,2.57-2.57,2.57H10.57c-2.99,0-5.43,2.43-5.43,5.43v55c0,2.99,2.43,5.43,5.43,5.43h55c2.99,0,5.43-2.43,5.43-5.43V16.14c0-1.42,1.15-2.57,2.57-2.57s2.57,1.15,2.57,2.57v50.17c0,5.83-4.74,10.57-10.57,10.57Z"/>
    <g>
      <path class="cls-3" d="M29.49,65.88H11.15V15.68c0-1.28,1.04-2.33,2.33-2.33h16.01c1.28,0,2.33,1.04,2.33,2.33v47.88c0,1.28-1.04,2.33-2.33,2.33Z"/>
      <path class="cls-1" d="M30.47,65.88H11.15L48.52,1.16c.42-.72,1.18-1.16,2.01-1.16h15.29c1.79,0,2.91,1.94,2.01,3.49l-35.35,61.23c-.42.72-1.18,1.16-2.01,1.16Z"/>
      <path class="cls-4" d="M65.82,65.88h-15.29c-.83,0-1.6-.44-2.01-1.16l-6.36-11.03c-.42-.72-.42-1.61,0-2.33l7.64-13.24c.9-1.55,3.13-1.55,4.03,0l14.01,24.27c.9,1.55-.22,3.49-2.01,3.49Z"/>
    </g>
  </g>
</svg>