<?xml version="1.0" encoding="UTF-8"?>
<svg id="Layer_2" data-name="Layer 2" xmlns="http://www.w3.org/2000/svg" viewBox="0 0 189.39 76.89">
  <defs>
    <style>
      .cls-1 {
        fill: #2dd4bf;
      }

      .cls-2 {
        fill: #b1fce8;
      }

      .cls-3 {
        fill: #0f766e;
      }

      .cls-4 {
        fill: #134e4a;
      }
    </style>
  </defs>
  <g id="Layer_1-2" data-name="Layer 1">
    <path class="cls-2" d="M178.82,76.89h-55c-5.83,0-10.57-4.74-10.57-10.57V11.31c0-5.83,4.74-10.57,10.57-10.57h26.87c1.42,0,2.57,1.15,2.57,2.57s-1.15,2.57-2.57,2.57h-26.87c-2.99,0-5.43,2.43-5.43,5.43v55c0,2.99,2.43,5.43,5.43,5.43h55c2.99,0,5.43-2.43,5.43-5.43V16.14c0-1.42,1.15-2.57,2.57-2.57s2.57,1.15,2.57,2.57v50.17c0,5.83-4.74,10.57-10.57,10.57Z"/>
    <g>
      <path class="cls-3" d="M142.73,65.88h-18.33V15.68c0-1.28,1.04-2.33,2.33-2.33h16.01c1.28,0,2.33,1.04,2.33,2.33v47.88c0,1.28-1.04,2.33-2.33,2.33Z"/>
      <path class="cls-1" d="M143.71,65.88h-19.32L161.76,1.16c.42-.72,1.18-1.16,2.01-1.16h15.29c1.79,0,2.91,1.94,2.01,3.49l-35.35,61.23c-.42.72-1.18,1.16-2.01,1.16Z"/>
      <path class="cls-4" d="M179.06,65.88h-15.29c-.83,0-1.6-.44-2.01-1.16l-6.36-11.03c-.42-.72-.42-1.61,0-2.33l7.64-13.24c.9-1.55,3.13-1.55,4.03,0l14.01,24.27c.9,1.55-.22,3.49-2.01,3.49Z"/>
    </g>
    <g>
      <g>
        <path class="cls-4" d="M2.05,51.47c1.37-2.47,3.27-4.4,5.72-5.78,2.44-1.38,5.22-2.07,8.31-2.07,3.8,0,7.04,1,9.75,3.01,2.7,2,4.51,4.74,5.42,8.2h-8.56c-.64-1.34-1.54-2.35-2.71-3.05-1.17-.7-2.5-1.05-3.99-1.05-2.4,0-4.34.84-5.83,2.5-1.49,1.67-2.23,3.9-2.23,6.7s.74,5.03,2.23,6.7c1.49,1.67,3.43,2.51,5.83,2.51,1.49,0,2.82-.35,3.99-1.05,1.17-.7,2.07-1.72,2.71-3.05h8.56c-.91,3.46-2.72,6.19-5.42,8.18-2.7,1.99-5.95,2.98-9.75,2.98-3.1,0-5.87-.69-8.31-2.07-2.44-1.38-4.35-3.3-5.72-5.76-1.37-2.46-2.05-5.27-2.05-8.43s.68-5.97,2.05-8.45Z"/>
        <path class="cls-4" d="M58.67,53.15c1.76,1.93,2.64,4.58,2.64,7.95v14.85h-7.74v-13.8c0-1.7-.44-3.02-1.32-3.96-.88-.94-2.07-1.41-3.55-1.41s-2.67.47-3.55,1.41c-.88.94-1.32,2.26-1.32,3.96v13.8h-7.79v-33.71h7.79v11.71c.79-1.12,1.87-2.02,3.23-2.69,1.37-.67,2.9-1,4.6-1,2.91,0,5.25.96,7.01,2.89Z"/>
        <path class="cls-4" d="M90.55,65.11h-17.63c.12,1.58.63,2.79,1.53,3.62.9.84,2,1.25,3.3,1.25,1.94,0,3.29-.82,4.05-2.46h8.29c-.43,1.67-1.19,3.17-2.3,4.51-1.11,1.34-2.5,2.38-4.17,3.14-1.67.76-3.54,1.14-5.6,1.14-2.49,0-4.71-.53-6.65-1.59-1.94-1.06-3.46-2.58-4.55-4.55-1.09-1.97-1.64-4.28-1.64-6.92s.54-4.95,1.62-6.92c1.08-1.97,2.59-3.49,4.53-4.55,1.94-1.06,4.17-1.59,6.7-1.59s4.65.52,6.56,1.55c1.91,1.03,3.41,2.5,4.49,4.42s1.62,4.15,1.62,6.7c0,.73-.04,1.49-.14,2.28ZM82.71,60.78c0-1.34-.46-2.4-1.37-3.19-.91-.79-2.05-1.18-3.42-1.18s-2.41.38-3.3,1.14c-.9.76-1.45,1.84-1.66,3.23h9.75Z"/>
        <path class="cls-4" d="M94.85,56.32c1.08-1.97,2.58-3.49,4.51-4.55,1.93-1.06,4.14-1.59,6.63-1.59,3.19,0,5.85.84,7.99,2.51,2.14,1.67,3.54,4.02,4.21,7.06h-8.29c-.7-1.94-2.05-2.92-4.05-2.92-1.43,0-2.57.55-3.42,1.66-.85,1.11-1.28,2.7-1.28,4.76s.42,3.65,1.28,4.76c.85,1.11,1.99,1.66,3.42,1.66,2,0,3.36-.97,4.05-2.92h8.29c-.67,2.98-2.08,5.31-4.24,7.01-2.16,1.7-4.81,2.55-7.97,2.55-2.49,0-4.7-.53-6.63-1.59-1.93-1.06-3.43-2.58-4.51-4.55-1.08-1.97-1.62-4.28-1.62-6.92s.54-4.95,1.62-6.92Z"/>
      </g>
      <g>
        <path class="cls-4" d="M18.04,24.54c-.44-.66-1-1.22-1.69-1.68-.69-.45-1.45-.82-2.28-1.12-.83-.3-1.62-.58-2.38-.82-1.11-.36-2.23-.79-3.38-1.31-1.14-.51-2.18-1.13-3.12-1.85-.95-.73-1.72-1.6-2.32-2.6-.6-1-.9-2.18-.9-3.53s.3-2.56.9-3.63c.6-1.06,1.38-1.96,2.34-2.7.96-.73,2.06-1.29,3.28-1.67,1.22-.38,2.45-.57,3.69-.57,1.37,0,2.68.23,3.95.68s2.39,1.09,3.37,1.91c.98.82,1.76,1.81,2.35,2.98s.9,2.47.93,3.91h-4.1c-.12-.91-.34-1.73-.67-2.47-.33-.74-.77-1.38-1.32-1.91s-1.2-.95-1.95-1.24c-.75-.29-1.61-.44-2.56-.44-.76,0-1.51.11-2.23.32s-1.37.54-1.93.97c-.58.43-1.03.96-1.37,1.6-.34.63-.51,1.37-.51,2.2.01.91.24,1.67.69,2.3.45.63,1.01,1.15,1.71,1.59.68.43,1.41.79,2.21,1.08.8.29,1.55.54,2.26.76,1.17.36,2.33.8,3.5,1.31,1.17.51,2.23,1.16,3.19,1.95.95.73,1.72,1.63,2.3,2.7.58,1.06.87,2.29.87,3.69s-.31,2.64-.94,3.69c-.63,1.05-1.44,1.92-2.43,2.61-.99.71-2.12,1.23-3.37,1.59s-2.5.53-3.76.53c-1.5,0-2.97-.25-4.41-.76s-2.7-1.23-3.77-2.18c-.95-.82-1.7-1.78-2.25-2.88-.55-1.1-.85-2.33-.9-3.68h4.08c.13.98.4,1.85.8,2.6.4.76.92,1.39,1.55,1.91.63.53,1.36.93,2.19,1.2.83.27,1.73.4,2.71.4.78,0,1.54-.1,2.3-.29s1.43-.5,2.02-.92c.59-.4,1.07-.92,1.45-1.54s.56-1.37.56-2.23c0-.96-.22-1.78-.66-2.44Z"/>
        <path class="cls-4" d="M30.18,26.85v8.07h-4.01V1.77h4.01v20.29l2.61-2.81,7.66-7.68h4.86l-9.45,9.73,10.9,13.62h-5.07l-8.57-10.9-2.93,2.83Z"/>
        <path class="cls-4" d="M62.56,11.57v19.9h7.62v3.45h-19.55v-3.45h7.94V15.04h-7.94v-3.47h11.94ZM58.21,4.47c.11-.3.28-.56.51-.78.19-.19.43-.33.72-.44s.63-.16,1-.16.71.05.99.16c.29.11.53.26.71.44.23.2.4.45.52.76.12.3.17.63.17.99,0,.65-.2,1.19-.6,1.62s-1,.65-1.79.65-1.41-.22-1.8-.65-.59-.97-.59-1.62c0-.35.05-.67.16-.97Z"/>
        <path class="cls-4" d="M86.43,1.77v29.7h7.62v3.45h-19.55v-3.45h7.94V5.25h-7.94V1.77h11.93Z"/>
        <path class="cls-4" d="M110.3,1.77v29.7h7.62v3.45h-19.55v-3.45h7.94V5.25h-7.94V1.77h11.94Z"/>
      </g>
    </g>
  </g>
</svg>